<?xml version="1.0" encoding="UTF-8"?>
<svg id="Layer_2" data-name="Layer 2" xmlns="http://www.w3.org/2000/svg" viewBox="0 0 961.84 1040.58">
  <defs>
    <style>
      .cls-1 {
        fill: #3399d2;
      }

      .cls-2 {
        fill: #fdfdfd;
      }

      .cls-3 {
        fill: #6acdf1;
      }

      .cls-4 {
        fill: #f69b26;
      }

      .cls-5 {
        fill: #278dc9;
      }

      .cls-6 {
        fill: #0a334d;
      }
    </style>
  </defs>
  <g id="Layer_1-2" data-name="Layer 1">
    <g>
      <path class="cls-1" d="M658.89,8.44l-2.22-.14c-.64-.04-1.09,1.01-.64,1.87l-.87.02c-1.34.03-2.54-.13-4.19.3-1.04.27-2.22,1.12-1.89,2.77-.18.05-.45.15-.65.1-.55-.14-1.38,0-1.37.87-.16.1-.51.12-.7.08-.8-.15-1.72-.31-2.73-.12-.61.12-1.01,1.24-.67,1.98l-61.47,28.43-25.41,12.52c-16.64,8.2-24.18,25.11-18.33,43.62-94.65-13.24-191.81,3.3-276.12,45-2.56,1.27-4.39,1.74-6.8,3.12l-33.75,19.48C127.52,227.93,58.85,315.94,23.59,421.46,8.56,466.44,1.19,512.61.12,560c-2.66,117.27,38.72,229.47,115.26,317.53,71.79,82.6,169.5,138.4,277.58,156.5,191.97,32.15,381.68-56.12,482.26-221.89,72.34-119.23,87.04-263.59,42.76-395.71,5.99-5.72,10.91-11.89,12.29-20.3l31.15-190.89c3.34-20.44-13.84-34.02-32.04-36.84l-66.63-10.32-6.29-63.47c-1.64-16.51-15.2-26.55-31.7-27.71l-83.63,7.82-25.21-53.35c-7.62-16.12-22.95-25.19-40.93-19.84l-16.08,6.9Z"/>
      <path class="cls-6" d="M642.96,16.17c1.14-.53,2.73-.4,3.4-1.86.19.04.54.02.7-.08l1.37-.87c.19.05.46-.05.65-.1,2.2-.63,4.37-1.55,6.09-3.07l.87-.02c1.11-.02,2.1-.59,2.86-1.73l16.08-6.9c17.99-5.35,33.31,3.72,40.93,19.84l25.21,53.35,83.63-7.82c16.5,1.16,30.07,11.2,31.7,27.71l6.29,63.47,66.63,10.32c18.2,2.82,35.37,16.4,32.04,36.84l-31.15,190.89c-1.37,8.41-6.3,14.58-12.29,20.3,44.28,132.12,29.58,276.48-42.76,395.71-100.58,165.77-290.29,254.04-482.26,221.89-108.09-18.1-205.79-73.9-277.58-156.5C38.84,789.47-2.54,677.26.12,560c1.07-47.39,8.44-93.56,23.47-138.54,35.26-105.52,103.93-193.54,197.49-253.11l33.75-19.48c2.4-1.39,4.23-1.86,6.8-3.12,84.31-41.71,181.47-58.24,276.12-45-5.84-18.51,1.69-35.42,18.33-43.62l25.41-12.52,61.47-28.43ZM676.47,255.38l-13.92-141.96c-1.66-16.93,12.16-31.29,27.47-33.12l23.61-2.82-22.92-47.08c-1.61-3.3-5.93-4.68-9.5-2.99l-89.47,42.27-24.66,11.43c-5.5,2.55-6.27,7.62-3.78,12.9l79.9,169.65c2.02,4.29,8.24,3.57,11.37,2.09l21.9-10.37ZM747.67,306.43l21.36-132.88c5.42-16.37,19.14-26.82,36.08-24.35l30.92,4.52-5.47-55.22c-.44-4.4-6.42-5.28-10-4.92l-124.35,12.45c-4.8.48-7.84,4.5-7.39,9.05l6.7,67.48,11.81,118.35c.5,5,3.31,8.84,8.74,8.35l31.62-2.83ZM740.45,749.65c6.14,11.18,17.51,17.43,30.15,18.88,34.9,4,82.88-25.52,108.14-50.74,29.66-80.55,34.86-167.41,14.36-250.73l-14-46.67-114.78-18.54c-16.68-2.69-28.34-18.65-26.05-34.74l4.8-33.69-28.78,2.26c-16.69-.24-29.74-11.37-32.46-27.53l-2.44-24.67-18.12,8c-14.98,4.67-33.49.35-40.77-15.04l-63.4-134.02c-149.48-27.77-300.15,19.45-403.14,130.61-43.27,47.28-76.38,102.78-95.94,163.92-44.52,139.17-16.76,288.78,74.64,402.43,29.85,37.11,65.07,69.21,105.36,94.49l23.31,1.63c61.81-.55,117.82-11.46,174.95-35.13,18.63-7.72,35.62-17.17,50.73-30.3,22.31-19.39,42.69-58.21,54.97-86.04l23.27-52.75c22.16-50.25,65.5-100.44,116.42-122.55,36.35-15.78,77.22-11.76,109.81,11.06-28.87,28.86-70.93,93.6-51.02,129.84ZM893.66,395.88c4.49.71,10.09-.51,10.89-5.35l30.43-185.26c1.03-6.25-2.4-9.54-7.98-10.4l-124.98-19.37c-3.23-.5-7.18,2.82-7.7,6.05l-29.44,183.15c-.93,5.79.1,10.91,6.63,11.94l122.15,19.23ZM600.46,858.05c14.66-17.38,34.39-26.69,56.7-27.62,26.97-.8,51.48,9.97,74.52,24.43-20.18,15.12-42.55,34.17-49.14,57.66-3.11,11.08-2.66,22.86,3.65,32.82,65.77-37.75,120.4-91.65,159.5-157.52-32.73,16.34-68.99,25.47-102.31,11.88-35.54-15-50.59-50.97-44.19-88.62,4.57-26.92,15.78-51.04,31.16-74.16-14.94-.36-28.56,3.42-41.44,10.05-39.2,20.17-72.11,60.05-89.92,100.04l-25.58,57.42c-11.58,25.98-24.8,50.28-42.15,72.82-13.84,17.97-30.52,31.73-50.24,42.84-19.39,11.13-39.2,19.25-60.44,26.6-36.25,12.54-72.73,20.21-111.61,24.18,41.41,17.02,83.4,26.29,126.89,30.19,23.23.53,45.45-2.23,66.87-10.15,28.27-10.8,49.21-31.83,60.47-59.69l13.81-34.19c5.74-14.22,13.29-26.93,23.44-38.97ZM569,991.09c29.88-6.43,56.23-16.45,83.35-28.11-12.97-26.79-12.44-57.7,3.03-82.54l7.73-12.41c-26.68-2.69-43.79,22.81-53.19,45.96l-12.99,32.01c-6.79,16.73-15.71,31.72-27.93,45.1Z"/>
      <path class="cls-2" d="M740.45,749.65c-19.91-36.24,22.15-100.98,51.02-129.84-32.59-22.83-73.46-26.85-109.81-11.06-50.92,22.11-94.25,72.31-116.42,122.55l-23.27,52.75c-12.28,27.83-32.65,66.64-54.97,86.04-15.11,13.13-32.1,22.58-50.73,30.3-57.13,23.67-113.14,34.58-174.95,35.13l-23.31-1.63c-40.29-25.28-75.51-57.38-105.36-94.49C41.27,725.75,13.5,576.13,58.03,436.97c19.56-61.14,52.68-116.64,95.94-163.92,102.99-111.16,253.66-158.38,403.14-130.61l63.4,134.02c7.28,15.39,25.79,19.71,40.77,15.04l18.12-8,2.44,24.67c2.72,16.16,15.76,27.29,32.46,27.53l28.78-2.26-4.8,33.69c-2.29,16.09,9.37,32.04,26.05,34.74l114.78,18.54,14,46.67c20.49,83.33,15.3,170.18-14.36,250.73-25.26,25.22-73.24,54.74-108.14,50.74-12.65-1.45-24.01-7.7-30.15-18.88ZM399.82,558.63c4.21-6.35,2.45-13.57-2.92-17.44l-12.7-9.15c15.93-9.16,27.3-22.83,32.87-39.95,7.88-24.24,8.23-50.26.41-74.45-12.88-39.84-54.83-56.75-93.79-45.91-22.14,6.16-38.54,21.7-47.19,43.02-9.8,26.68-9.83,56.2,1.21,82.5,9.14,21.76,27.3,36.61,49.96,42l28.88,32.24c3.74,4.18,8.66,5.94,14.52,5.49,11.35-2.17,22.17-8.4,28.77-18.36ZM211.22,505.22l5.95,25.68c1.6,3.91,5.31,7.09,9.82,7.1l37.03.07c3.68,0,6.94-1.45,8.75-3.83,1.92-2.53,2.81-5.51,1.89-9.11l-36.86-143.73c-1.49-5.8-4.55-9.91-11.01-9.91l-52.64-.05c-5.8,0-9.27,3.82-10.67,9.18l-37.32,142.32c-1.08,4.11-1.62,7.3.82,10.58,1.94,2.61,4.93,4.53,9.02,4.52l33.02-.06c5.23,0,8.98-3.85,10.21-8.7l6.02-23.83,25.98-.23ZM506.83,381.53l-.08,97.27c0,2.34-1.16,4.38-2.35,5.24-2.16,1.57-9.99,1.83-12.53-.27-1.33-1.1-2.5-3.54-2.49-6.11l.17-39.59c.04-8.51-.16-16.49-.13-25.04l.04-9.97c.03-8.09,1.31-16.05-.54-23.99-1.24-5.32-6.71-7.79-11.84-7.79l-35.2.04c-5.15,0-11.81,3.7-11.79,9.85l.39,103.59c.09,23.84,15.8,43.32,37.86,50.94,31.3,10.82,75.91,5.75,91.11-25.1,3.37-6.83,6.46-14.66,6.49-22.58l.38-104.94c.02-6.09-4.19-11.62-10.42-11.6l-39.45.14c-4.77.02-9.61,4.53-9.61,9.88ZM651.08,505.4l6.08,25.5c1.34,3.78,4.62,6.96,8.94,6.98l38.91.14c3.93.01,6.91-2.73,8.44-5.07,2.23-3.43,1.38-6.23.41-10.02l-36.21-142.32c-1.39-5.48-4.99-9.15-10.79-9.15l-52.69.03c-5.7,0-9.12,4.17-10.48,9.36l-37.58,143.08c-1.06,4.04-.84,7.17,1.46,10.13,1.83,2.36,4.88,3.95,8.46,3.94l33.03-.04c4.75,0,8.94-3.23,10.03-7.75l5.96-24.88,26.06.07ZM460.97,663.6c-5.94.04-10.88,4.91-10.88,10.36v28.65c-10.38,2.55-21-2.31-24.89-12.9-4.11-11.19-4.35-23.42-.29-34.63,6.1-16.81,25.17-15.26,41.99-7.95,15.81,6.87,27.38-20.33,27.02-40.09-.11-6.2-5.49-10.76-10.99-13.02-20.31-8.32-42.71-9.76-63.94-3.98-19.53,5.32-34.92,17.82-44.52,35.5-14.31,26.36-13.79,66.15-1.03,93.13,9.38,19.82,26.66,34.12,48.41,38.46,22.96,4.58,46.4,2.4,68.02-6.1,3.63-1.43,6.91-5.1,6.9-9.06l-.14-68.74c-.01-5.73-6.41-9.82-11.67-9.78l-24,.16ZM317.45,702.09c-6.87-2-11.28-7.02-13.18-13.39-3.44-11.55-3.44-23.6.26-35.05,4.49-13.87,20.49-13.95,35-8.18,12.96,5.15,21.37-17.57,24.84-31.98,1.83-7.6-1.74-14.5-9.01-18.07-20.73-10.19-45.62-11.41-67.23-2.21-45.13,19.22-54.48,79.55-37.76,122.3,10.76,27.51,36.42,43.91,65.64,43.86,15.32-.03,30-2.35,42.88-10.31,6.54-4.03,9.62-10.41,7.97-18.01-2.04-9.42-5.21-18.41-10.16-26.7-2.75-4.61-8.89-7.76-13.93-5.46-7.91,3.61-16.37,5.81-25.33,3.19ZM200.55,757.08c6.51,0,10.46-5.15,10.45-11.1l-.08-103.96,21.14-.07c5.55-.02,9.72-4.79,10.69-10.07l-.18-30.73c-.04-6.6-5.03-11.59-11.73-11.6l-93.77-.15c-7.7-.01-13.37,4.74-13.36,12.69l.03,28c-.15,6.55,4.67,11.93,11.24,11.95l20.25.07-.26,101.88c-.02,6.51,2.88,13.04,10.08,13.05l35.5.05Z"/>
      <path class="cls-3" d="M600.46,858.05c-10.15,12.04-17.69,24.75-23.44,38.97l-13.81,34.19c-11.26,27.86-32.2,48.89-60.47,59.69-21.42,7.92-43.64,10.68-66.87,10.15-43.49-3.9-85.48-13.18-126.89-30.19,38.88-3.96,75.36-11.64,111.61-24.18,21.25-7.35,41.06-15.47,60.44-26.6,19.72-11.11,36.4-24.86,50.24-42.84,17.35-22.54,30.57-46.84,42.15-72.82l25.58-57.42c17.82-39.99,50.72-79.86,89.92-100.04,12.88-6.63,26.5-10.41,41.44-10.05-15.38,23.12-26.59,47.24-31.16,74.16-6.39,37.65,8.66,73.62,44.19,88.62,33.32,13.59,69.57,4.47,102.31-11.88-39.1,65.87-93.73,119.77-159.5,157.52-6.32-9.96-6.76-21.74-3.65-32.82,6.59-23.5,28.96-42.54,49.14-57.66-23.05-14.46-47.56-25.24-74.52-24.43-22.31.93-42.04,10.24-56.7,27.62Z"/>
      <path class="cls-4" d="M893.66,395.88l-122.15-19.23c-6.53-1.03-7.56-6.15-6.63-11.94l29.44-183.15c.52-3.23,4.46-6.55,7.7-6.05l124.98,19.37c5.57.86,9,4.15,7.98,10.4l-30.43,185.26c-.8,4.84-6.4,6.06-10.89,5.35Z"/>
      <path class="cls-4" d="M747.67,306.43l-31.62,2.83c-5.43.49-8.24-3.35-8.74-8.35l-11.81-118.35-6.7-67.48c-.45-4.55,2.59-8.57,7.39-9.05l124.35-12.45c3.59-.36,9.57.52,10,4.92l5.47,55.22-30.92-4.52c-16.93-2.48-30.66,7.98-36.08,24.35l-21.36,132.88Z"/>
      <path class="cls-4" d="M676.47,255.38l-21.9,10.37c-3.13,1.48-9.35,2.2-11.37-2.09l-79.9-169.65c-2.49-5.28-1.72-10.35,3.78-12.9l24.66-11.43,89.47-42.27c3.57-1.69,7.89-.31,9.5,2.99l22.92,47.08-23.61,2.82c-15.31,1.83-29.13,16.18-27.47,33.12l13.92,141.96Z"/>
      <path class="cls-5" d="M569,991.09c12.21-13.38,21.14-28.37,27.93-45.1l12.99-32.01c9.4-23.15,26.51-48.64,53.19-45.96l-7.73,12.41c-15.47,24.84-16,55.75-3.03,82.54-27.12,11.66-53.47,21.68-83.35,28.11Z"/>
      <path class="cls-6" d="M506.83,381.53c0-5.35,4.84-9.86,9.61-9.88l39.45-.14c6.23-.02,10.44,5.51,10.42,11.6l-.38,104.94c-.03,7.92-3.12,15.75-6.49,22.58-15.2,30.84-59.81,35.92-91.11,25.1-22.06-7.63-37.77-27.1-37.86-50.94l-.39-103.59c-.02-6.15,6.63-9.85,11.79-9.85l35.2-.04c5.13,0,10.6,2.46,11.84,7.79,1.84,7.94.57,15.9.54,23.99l-.04,9.97c-.03,8.55.17,16.53.13,25.04l-.17,39.59c-.01,2.56,1.16,5.01,2.49,6.11,2.54,2.1,10.37,1.83,12.53.27,1.19-.86,2.35-2.91,2.35-5.24l.08-97.27ZM554.11,383.95l-35.2.04v96.99c-1.54,12.09-12.29,18.28-23.82,16.83-9.85-1.24-17.39-7.51-17.79-17.95l-.06-95.91h-35.08s.2,98.41.2,98.41c2.74,33.28,25.6,46.04,57.62,45.9,8.43-.04,15.93-.57,23.95-3.23,21.49-7.12,30.31-24.42,30.28-47.06l-.1-94.02Z"/>
      <path class="cls-6" d="M460.97,663.6l24-.16c5.26-.03,11.66,4.05,11.67,9.78l.14,68.74c0,3.96-3.27,7.63-6.9,9.06-21.62,8.5-45.06,10.68-68.02,6.1-21.76-4.34-39.04-18.64-48.41-38.46-12.76-26.98-13.28-66.77,1.03-93.13,9.59-17.68,24.99-30.18,44.52-35.5,21.22-5.78,43.63-4.34,63.94,3.98,5.51,2.26,10.88,6.82,10.99,13.02.36,19.76-11.2,46.96-27.02,40.09-16.82-7.3-35.89-8.86-41.99,7.95-4.06,11.21-3.83,23.44.29,34.63,3.89,10.59,14.52,15.45,24.89,12.9v-28.65c0-5.45,4.94-10.32,10.88-10.36ZM413.45,693.62c-4.61-13.54-4.67-27.96-.46-41.5s15.43-21.77,29.5-22.56c10.11-.57,19.83,2.04,29.49,6.07,7.24-6.41,8.5-15.4,9.52-24.4.34-3.03-.47-4.89-3.81-6.18-16.33-6.31-34.38-7.79-51.72-4.12-47.59,10.07-58.8,65.57-43.82,106.73,7.41,20.37,24.01,34.54,45.24,37.96,19.21,3.09,38.44,1.19,56.61-5.37l.27-64.27-22.1-.11-.1,36.95c-20.26,7.38-41.85.66-48.62-19.2Z"/>
      <path class="cls-6" d="M399.82,558.63c-6.6,9.95-17.42,16.19-28.77,18.36-5.86.45-10.78-1.31-14.52-5.49l-28.88-32.24c-22.66-5.4-40.82-20.24-49.96-42-11.04-26.3-11.01-55.82-1.21-82.5,8.64-21.32,25.05-36.86,47.19-43.02,38.96-10.84,80.91,6.06,93.79,45.91,7.82,24.19,7.47,50.21-.41,74.45-5.57,17.12-16.94,30.79-32.87,39.95l12.7,9.15c5.38,3.87,7.13,11.09,2.92,17.44ZM389.95,551.36l-22.26-16c-3.07-1.77-5.73-4.19-6.52-7.68,30.18-6.65,45.57-30.07,48.93-59.64,3.46-30.37-3.71-64.79-31.56-79.53-12.42-6.58-26.17-8.31-40.03-7.04-24.38,2.24-43.6,17.69-51.63,40.61-3.92,11.18-5.32,21.96-5.14,34.01.51,34.76,15.97,64.64,51.55,71.75l18.66,20.21,16.45,16.92c8.78-1.16,16.92-6.22,21.54-13.63Z"/>
      <path class="cls-6" d="M211.22,505.22l-25.98.23-6.02,23.83c-1.22,4.84-4.98,8.69-10.21,8.7l-33.02.06c-4.09,0-7.08-1.91-9.02-4.52-2.44-3.28-1.89-6.47-.82-10.58l37.32-142.32c1.41-5.36,4.88-9.19,10.67-9.18l52.64.05c6.46,0,9.52,4.11,11.01,9.91l36.86,143.73c.92,3.59.02,6.58-1.89,9.11-1.81,2.39-5.06,3.84-8.75,3.83l-37.03-.07c-4.5,0-8.22-3.19-9.82-7.1l-5.95-25.68ZM223.04,502.43l5.43,23.38,33.7-.19-36.46-141.66-50.27.07-37.23,141.71,29.41-.02,8.29-32.59,43.89.02c2.22,2.5,2.44,5.74,3.26,9.27Z"/>
      <path class="cls-6" d="M651.08,505.4l-26.06-.07-5.96,24.88c-1.08,4.52-5.28,7.74-10.03,7.75l-33.03.04c-3.58,0-6.63-1.59-8.46-3.94-2.29-2.96-2.52-6.09-1.46-10.13l37.58-143.08c1.36-5.19,4.78-9.36,10.48-9.36l52.69-.03c5.8,0,9.4,3.68,10.79,9.15l36.21,142.32c.97,3.79,1.81,6.59-.41,10.02-1.52,2.35-4.51,5.09-8.44,5.07l-38.91-.14c-4.31-.02-7.6-3.2-8.94-6.98l-6.08-25.5ZM660.73,493.4l7.9,32.35,33.37-.1-36.07-141.57-50.32-.21-37.17,141.76,28.91.12,8.45-32.7,44.93.35Z"/>
      <path class="cls-6" d="M317.45,702.09c8.96,2.61,17.41.42,25.33-3.19,5.03-2.3,11.18.85,13.93,5.46,4.95,8.29,8.11,17.28,10.16,26.7,1.65,7.6-1.43,13.97-7.97,18.01-12.89,7.96-27.57,10.28-42.88,10.31-29.22.05-54.89-16.35-65.64-43.86-16.72-42.75-7.37-103.08,37.76-122.3,21.61-9.21,46.5-7.98,67.23,2.21,7.26,3.57,10.83,10.47,9.01,18.07-3.46,14.41-11.88,37.13-24.84,31.98-14.51-5.77-30.51-5.69-35,8.18-3.7,11.45-3.7,23.5-.26,35.05,1.9,6.37,6.31,11.39,13.18,13.39ZM293.66,695.22c-8.44-22.2-5.37-57.32,18.27-64.05,10.44-2.97,20.82-1.3,31.23,2.31,4.86-7.51,8.35-15.63,9.57-24.35-3.44-3.8-8.18-5.48-13.09-6.79-34.15-9.05-67.43,3.93-79.1,37.48-12.21,35.11-6.35,85.91,30.55,102.03,18.26,7.98,47.62,6.93,63.88-4.97.27-8.29-4.48-18.4-8.98-26.37-19.6,10.13-44.41,5.53-52.34-15.29Z"/>
      <path class="cls-6" d="M200.55,757.08l-35.5-.05c-7.2-.01-10.1-6.53-10.08-13.05l.26-101.88-20.25-.07c-6.56-.02-11.39-5.4-11.24-11.95l-.03-28c0-7.94,5.66-12.7,13.36-12.69l93.77.15c6.7.01,11.69,5,11.73,11.6l.18,30.73c-.97,5.28-5.13,10.05-10.69,10.07l-21.14.07.08,103.96c0,5.95-3.94,11.11-10.45,11.1ZM198.96,744.79l-.04-114.83,31.92-.44-.15-27.56-94.74-.06.06,27.88,31.32.28-.06,114.69,31.68.04Z"/>
      <path class="cls-3" d="M554.11,383.95l.1,94.02c.02,22.64-8.79,39.94-30.28,47.06-8.03,2.66-15.52,3.19-23.95,3.23-32.02.14-54.88-12.62-57.62-45.9l-.2-98.42h35.08s.06,95.91.06,95.91c.4,10.45,7.94,16.71,17.79,17.95,11.54,1.45,22.28-4.74,23.83-16.83v-96.99s35.19-.04,35.19-.04Z"/>
      <path class="cls-4" d="M413.45,693.62c6.76,19.86,28.36,26.58,48.62,19.2l.1-36.95,22.1.11-.27,64.27c-18.17,6.56-37.4,8.46-56.61,5.37-21.23-3.41-37.83-17.59-45.24-37.96-14.98-41.16-3.77-96.66,43.82-106.73,17.34-3.67,35.39-2.19,51.72,4.12,3.34,1.29,4.16,3.15,3.81,6.18-1.02,8.99-2.28,17.99-9.52,24.4-9.66-4.03-19.38-6.64-29.49-6.07-14.08.79-25.31,9.08-29.5,22.56s-4.15,27.96.46,41.5Z"/>
      <path class="cls-3" d="M389.95,551.36c-4.62,7.41-12.77,12.46-21.54,13.63l-16.45-16.92-18.66-20.21c-35.59-7.11-51.04-36.99-51.55-71.75-.18-12.05,1.22-22.83,5.14-34.01,8.03-22.92,27.25-38.37,51.63-40.61,13.86-1.27,27.61.46,40.03,7.04,27.86,14.74,35.02,49.16,31.56,79.53-3.36,29.57-18.75,52.99-48.93,59.64.79,3.48,3.45,5.91,6.52,7.68l22.26,16ZM377.18,452.05c-.35-11.05-2.96-21.63-10-30.21-6.27-7.64-15.87-10.59-25.66-9.01-26.61,4.28-32.01,44.69-20.41,68.85,4.85,10.1,14.46,16,24.39,16.18,23.29.41,32.42-22.17,31.68-45.81Z"/>
      <path class="cls-3" d="M223.04,502.43c-.82-3.52-1.04-6.76-3.26-9.27l-43.89-.02-8.29,32.59-29.41.02,37.23-141.71,50.27-.07,36.46,141.66-33.7.19-5.43-23.38ZM216.97,474.48l-13.58-56.79c-3.48-.97-6.95-.88-10.4.46l-14.06,56.7,38.04-.37Z"/>
      <path class="cls-3" d="M660.73,493.4l-44.93-.35-8.45,32.7-28.91-.12,37.17-141.76,50.32.21,36.07,141.57-33.37.1-7.9-32.35ZM656.3,471.15l-13.28-53.53c-3.65-.57-6.5-.82-10.01-.18l-13.9,57.29,33.94.32c1.24.01,2.58-.42,3.14-1.23.3-.45.49-1.2.12-2.67Z"/>
      <path class="cls-4" d="M293.66,695.22c7.92,20.82,32.73,25.42,52.34,15.29,4.51,7.97,9.25,18.08,8.98,26.37-16.26,11.9-45.62,12.94-63.88,4.97-36.9-16.12-42.76-66.92-30.55-102.03,11.67-33.55,44.94-46.53,79.1-37.48,4.91,1.3,9.65,2.99,13.09,6.79-1.22,8.73-4.71,16.85-9.57,24.35-10.41-3.61-20.79-5.28-31.23-2.31-23.64,6.73-26.71,41.86-18.27,64.05Z"/>
      <polygon class="cls-4" points="198.96 744.79 167.28 744.75 167.34 630.06 136.02 629.78 135.96 601.9 230.69 601.97 230.84 629.52 198.92 629.96 198.96 744.79"/>
      <path class="cls-6" d="M377.18,452.05c.74,23.64-8.39,46.22-31.68,45.81-9.93-.17-19.54-6.07-24.39-16.18-11.6-24.16-6.2-64.57,20.41-68.85,9.8-1.58,19.39,1.38,25.66,9.01,7.04,8.58,9.65,19.16,10,30.21ZM360.86,434.46c-2.91-6.24-8.96-10.36-15.09-9.89s-11.58,4-14.24,10.24c-8.58,20.13-3.39,50.02,14.12,50.8,18.88.84,24.64-30.93,15.21-51.15Z"/>
      <path class="cls-6" d="M216.97,474.48l-38.04.37,14.06-56.7c3.45-1.34,6.92-1.43,10.4-.46l13.58,56.79ZM202.1,462.75l-3.91-16.61-4.2,16.83c2.96.13,5.17.37,8.1-.23Z"/>
      <path class="cls-6" d="M656.3,471.15c.37,1.47.18,2.23-.12,2.67-.55.8-1.89,1.24-3.14,1.23l-33.94-.32,13.9-57.29c3.52-.63,6.37-.38,10.01.18l13.28,53.53ZM642.19,462.78l-3.93-16.44-4.09,16.64,8.02-.2Z"/>
      <path class="cls-2" d="M360.86,434.46c9.44,20.21,3.68,51.99-15.21,51.15-17.51-.78-22.7-30.67-14.12-50.8,2.66-6.24,8.07-9.77,14.24-10.24s12.17,3.65,15.09,9.89Z"/>
      <path class="cls-2" d="M202.1,462.75c-2.94.6-5.15.35-8.1.23l4.2-16.83,3.91,16.61Z"/>
      <polygon class="cls-2" points="642.19 462.78 634.17 462.98 638.26 446.34 642.19 462.78"/>
    </g>
  </g>
</svg>